<mxfile host="app.diagrams.net" agent="Mozilla/5.0 (X11; Ubuntu; Linux x86_64; rv:133.0) Gecko/20100101 Firefox/133.0" version="26.0.4">
  <diagram name="Page-1" id="kjSIp5pXhjDHa5u45Axl">
    <mxGraphModel dx="1434" dy="797" grid="1" gridSize="10" guides="1" tooltips="1" connect="1" arrows="1" fold="1" page="1" pageScale="1" pageWidth="827" pageHeight="1169" math="0" shadow="0">
      <root>
        <mxCell id="0" />
        <mxCell id="1" parent="0" />
        <mxCell id="YVkegcNKEWYejIBUxYfp-6" value="Autoloader" style="swimlane;fontStyle=1;align=center;verticalAlign=top;childLayout=stackLayout;horizontal=1;startSize=26;horizontalStack=0;resizeParent=1;resizeParentMax=0;resizeLast=0;collapsible=1;marginBottom=0;whiteSpace=wrap;html=1;" parent="1" vertex="1">
          <mxGeometry x="40" y="30" width="160" height="78" as="geometry" />
        </mxCell>
        <mxCell id="YVkegcNKEWYejIBUxYfp-9" value="+ register() : void" style="text;strokeColor=none;fillColor=none;align=left;verticalAlign=top;spacingLeft=4;spacingRight=4;overflow=hidden;rotatable=0;points=[[0,0.5],[1,0.5]];portConstraint=eastwest;whiteSpace=wrap;html=1;" parent="YVkegcNKEWYejIBUxYfp-6" vertex="1">
          <mxGeometry y="26" width="160" height="26" as="geometry" />
        </mxCell>
        <mxCell id="YVkegcNKEWYejIBUxYfp-10" value="+ autoload() : void" style="text;strokeColor=none;fillColor=none;align=left;verticalAlign=top;spacingLeft=4;spacingRight=4;overflow=hidden;rotatable=0;points=[[0,0.5],[1,0.5]];portConstraint=eastwest;whiteSpace=wrap;html=1;" parent="YVkegcNKEWYejIBUxYfp-6" vertex="1">
          <mxGeometry y="52" width="160" height="26" as="geometry" />
        </mxCell>
        <mxCell id="YVkegcNKEWYejIBUxYfp-38" value="&lt;font style=&quot;font-size: 20px;&quot;&gt;FORM&lt;/font&gt;" style="swimlane;whiteSpace=wrap;html=1;startSize=30;" parent="1" vertex="1">
          <mxGeometry x="40" y="160" width="1440" height="720" as="geometry">
            <mxRectangle x="580" y="120" width="140" height="30" as="alternateBounds" />
          </mxGeometry>
        </mxCell>
        <mxCell id="YVkegcNKEWYejIBUxYfp-11" value="InputRenderInterface" style="swimlane;fontStyle=1;align=center;verticalAlign=top;childLayout=stackLayout;horizontal=1;startSize=26;horizontalStack=0;resizeParent=1;resizeParentMax=0;resizeLast=0;collapsible=1;marginBottom=0;whiteSpace=wrap;html=1;" parent="YVkegcNKEWYejIBUxYfp-38" vertex="1">
          <mxGeometry x="20" y="50" width="160" height="52" as="geometry">
            <mxRectangle x="20" y="50" width="150" height="30" as="alternateBounds" />
          </mxGeometry>
        </mxCell>
        <mxCell id="YVkegcNKEWYejIBUxYfp-15" value="+ render() : void" style="text;strokeColor=none;fillColor=none;align=left;verticalAlign=top;spacingLeft=4;spacingRight=4;overflow=hidden;rotatable=0;points=[[0,0.5],[1,0.5]];portConstraint=eastwest;whiteSpace=wrap;html=1;" parent="YVkegcNKEWYejIBUxYfp-11" vertex="1">
          <mxGeometry y="26" width="160" height="26" as="geometry" />
        </mxCell>
        <mxCell id="YVkegcNKEWYejIBUxYfp-16" value="GenericFormElement" style="swimlane;fontStyle=1;align=center;verticalAlign=top;childLayout=stackLayout;horizontal=1;startSize=26;horizontalStack=0;resizeParent=1;resizeParentMax=0;resizeLast=0;collapsible=1;marginBottom=0;whiteSpace=wrap;html=1;" parent="YVkegcNKEWYejIBUxYfp-38" vertex="1">
          <mxGeometry x="234" y="50" width="196" height="648" as="geometry">
            <mxRectangle x="234" y="50" width="150" height="30" as="alternateBounds" />
          </mxGeometry>
        </mxCell>
        <mxCell id="YVkegcNKEWYejIBUxYfp-17" value="&lt;div&gt;+ name : String&lt;/div&gt;" style="text;strokeColor=none;fillColor=none;align=left;verticalAlign=top;spacingLeft=4;spacingRight=4;overflow=hidden;rotatable=0;points=[[0,0.5],[1,0.5]];portConstraint=eastwest;whiteSpace=wrap;html=1;" parent="YVkegcNKEWYejIBUxYfp-16" vertex="1">
          <mxGeometry y="26" width="196" height="26" as="geometry" />
        </mxCell>
        <mxCell id="YVkegcNKEWYejIBUxYfp-20" value="&lt;div&gt;+ tag : String&lt;/div&gt;" style="text;strokeColor=none;fillColor=none;align=left;verticalAlign=top;spacingLeft=4;spacingRight=4;overflow=hidden;rotatable=0;points=[[0,0.5],[1,0.5]];portConstraint=eastwest;whiteSpace=wrap;html=1;" parent="YVkegcNKEWYejIBUxYfp-16" vertex="1">
          <mxGeometry y="52" width="196" height="26" as="geometry" />
        </mxCell>
        <mxCell id="YVkegcNKEWYejIBUxYfp-26" value="&lt;div&gt;+ label : String&lt;/div&gt;" style="text;strokeColor=none;fillColor=none;align=left;verticalAlign=top;spacingLeft=4;spacingRight=4;overflow=hidden;rotatable=0;points=[[0,0.5],[1,0.5]];portConstraint=eastwest;whiteSpace=wrap;html=1;" parent="YVkegcNKEWYejIBUxYfp-16" vertex="1">
          <mxGeometry y="78" width="196" height="26" as="geometry" />
        </mxCell>
        <mxCell id="YVkegcNKEWYejIBUxYfp-25" value="&lt;div&gt;+ answer : String&lt;/div&gt;" style="text;strokeColor=none;fillColor=none;align=left;verticalAlign=top;spacingLeft=4;spacingRight=4;overflow=hidden;rotatable=0;points=[[0,0.5],[1,0.5]];portConstraint=eastwest;whiteSpace=wrap;html=1;" parent="YVkegcNKEWYejIBUxYfp-16" vertex="1">
          <mxGeometry y="104" width="196" height="26" as="geometry" />
        </mxCell>
        <mxCell id="YVkegcNKEWYejIBUxYfp-24" value="&lt;div&gt;+ innerhtml : String&lt;/div&gt;" style="text;strokeColor=none;fillColor=none;align=left;verticalAlign=top;spacingLeft=4;spacingRight=4;overflow=hidden;rotatable=0;points=[[0,0.5],[1,0.5]];portConstraint=eastwest;whiteSpace=wrap;html=1;" parent="YVkegcNKEWYejIBUxYfp-16" vertex="1">
          <mxGeometry y="130" width="196" height="26" as="geometry" />
        </mxCell>
        <mxCell id="YVkegcNKEWYejIBUxYfp-23" value="&lt;div&gt;+ value : String&lt;/div&gt;" style="text;strokeColor=none;fillColor=none;align=left;verticalAlign=top;spacingLeft=4;spacingRight=4;overflow=hidden;rotatable=0;points=[[0,0.5],[1,0.5]];portConstraint=eastwest;whiteSpace=wrap;html=1;" parent="YVkegcNKEWYejIBUxYfp-16" vertex="1">
          <mxGeometry y="156" width="196" height="26" as="geometry" />
        </mxCell>
        <mxCell id="YVkegcNKEWYejIBUxYfp-22" value="&lt;div&gt;+ required : bool&lt;/div&gt;" style="text;strokeColor=none;fillColor=none;align=left;verticalAlign=top;spacingLeft=4;spacingRight=4;overflow=hidden;rotatable=0;points=[[0,0.5],[1,0.5]];portConstraint=eastwest;whiteSpace=wrap;html=1;" parent="YVkegcNKEWYejIBUxYfp-16" vertex="1">
          <mxGeometry y="182" width="196" height="26" as="geometry" />
        </mxCell>
        <mxCell id="YVkegcNKEWYejIBUxYfp-21" value="&lt;div&gt;+ type : String&lt;/div&gt;" style="text;strokeColor=none;fillColor=none;align=left;verticalAlign=top;spacingLeft=4;spacingRight=4;overflow=hidden;rotatable=0;points=[[0,0.5],[1,0.5]];portConstraint=eastwest;whiteSpace=wrap;html=1;" parent="YVkegcNKEWYejIBUxYfp-16" vertex="1">
          <mxGeometry y="208" width="196" height="26" as="geometry" />
        </mxCell>
        <mxCell id="YVkegcNKEWYejIBUxYfp-28" value="&lt;div&gt;+ options : array&lt;br&gt;&lt;/div&gt;" style="text;strokeColor=none;fillColor=none;align=left;verticalAlign=top;spacingLeft=4;spacingRight=4;overflow=hidden;rotatable=0;points=[[0,0.5],[1,0.5]];portConstraint=eastwest;whiteSpace=wrap;html=1;" parent="YVkegcNKEWYejIBUxYfp-16" vertex="1">
          <mxGeometry y="234" width="196" height="26" as="geometry" />
        </mxCell>
        <mxCell id="YVkegcNKEWYejIBUxYfp-18" value="" style="line;strokeWidth=1;fillColor=none;align=left;verticalAlign=middle;spacingTop=-1;spacingLeft=3;spacingRight=3;rotatable=0;labelPosition=right;points=[];portConstraint=eastwest;strokeColor=inherit;" parent="YVkegcNKEWYejIBUxYfp-16" vertex="1">
          <mxGeometry y="260" width="196" height="8" as="geometry" />
        </mxCell>
        <mxCell id="YVkegcNKEWYejIBUxYfp-19" value="+ method(type): type" style="text;strokeColor=none;fillColor=none;align=left;verticalAlign=top;spacingLeft=4;spacingRight=4;overflow=hidden;rotatable=0;points=[[0,0.5],[1,0.5]];portConstraint=eastwest;whiteSpace=wrap;html=1;" parent="YVkegcNKEWYejIBUxYfp-16" vertex="1">
          <mxGeometry y="268" width="196" height="26" as="geometry" />
        </mxCell>
        <mxCell id="YVkegcNKEWYejIBUxYfp-29" value="+ __construct(&lt;br&gt;&lt;div&gt;&lt;span style=&quot;white-space: pre;&quot;&gt;&#x9;&lt;/span&gt;name : String,&lt;/div&gt;&lt;div&gt;&lt;span style=&quot;white-space: pre;&quot;&gt;&#x9;&lt;/span&gt;$required : bool = false,&lt;br&gt;&lt;/div&gt; &lt;span style=&quot;white-space: pre;&quot;&gt;&#x9;&lt;/span&gt; defaultValue :&lt;span style=&quot;white-space: pre;&quot;&gt;&lt;/span&gt; String = &quot;&quot;,&lt;br&gt;&lt;span style=&quot;white-space: pre;&quot;&gt;&#x9;&lt;/span&gt;label : String = &#39;&#39;,&lt;br&gt;&lt;span style=&quot;white-space: pre;&quot;&gt;&#x9;&lt;/span&gt;innerhtml :&amp;nbsp;String = &#39;&#39;,&lt;br&gt;&lt;span style=&quot;white-space: pre;&quot;&gt;&#x9;&lt;/span&gt;answer :&amp;nbsp;String = &#39;&#39;,&lt;br&gt;&lt;span style=&quot;white-space: pre;&quot;&gt;&#x9;&lt;/span&gt;...$options&lt;br&gt;)" style="text;strokeColor=none;fillColor=none;align=left;verticalAlign=top;spacingLeft=4;spacingRight=4;overflow=hidden;rotatable=0;points=[[0,0.5],[1,0.5]];portConstraint=eastwest;whiteSpace=wrap;html=1;" parent="YVkegcNKEWYejIBUxYfp-16" vertex="1">
          <mxGeometry y="294" width="196" height="146" as="geometry" />
        </mxCell>
        <mxCell id="YVkegcNKEWYejIBUxYfp-30" value="+ __toString(): String" style="text;strokeColor=none;fillColor=none;align=left;verticalAlign=top;spacingLeft=4;spacingRight=4;overflow=hidden;rotatable=0;points=[[0,0.5],[1,0.5]];portConstraint=eastwest;whiteSpace=wrap;html=1;" parent="YVkegcNKEWYejIBUxYfp-16" vertex="1">
          <mxGeometry y="440" width="196" height="26" as="geometry" />
        </mxCell>
        <mxCell id="YVkegcNKEWYejIBUxYfp-37" value="+ render(): String&lt;span style=&quot;white-space: pre;&quot;&gt;&#x9;&lt;/span&gt;" style="text;strokeColor=none;fillColor=none;align=left;verticalAlign=top;spacingLeft=4;spacingRight=4;overflow=hidden;rotatable=0;points=[[0,0.5],[1,0.5]];portConstraint=eastwest;whiteSpace=wrap;html=1;" parent="YVkegcNKEWYejIBUxYfp-16" vertex="1">
          <mxGeometry y="466" width="196" height="26" as="geometry" />
        </mxCell>
        <mxCell id="YVkegcNKEWYejIBUxYfp-36" value="+ getopts(): array&lt;span style=&quot;white-space: pre;&quot;&gt;&#x9;&lt;/span&gt;" style="text;strokeColor=none;fillColor=none;align=left;verticalAlign=top;spacingLeft=4;spacingRight=4;overflow=hidden;rotatable=0;points=[[0,0.5],[1,0.5]];portConstraint=eastwest;whiteSpace=wrap;html=1;" parent="YVkegcNKEWYejIBUxYfp-16" vertex="1">
          <mxGeometry y="492" width="196" height="26" as="geometry" />
        </mxCell>
        <mxCell id="YVkegcNKEWYejIBUxYfp-35" value="+ renderOptions(): String" style="text;strokeColor=none;fillColor=none;align=left;verticalAlign=top;spacingLeft=4;spacingRight=4;overflow=hidden;rotatable=0;points=[[0,0.5],[1,0.5]];portConstraint=eastwest;whiteSpace=wrap;html=1;" parent="YVkegcNKEWYejIBUxYfp-16" vertex="1">
          <mxGeometry y="518" width="196" height="26" as="geometry" />
        </mxCell>
        <mxCell id="YVkegcNKEWYejIBUxYfp-34" value="+ is_correct(value : String): bool" style="text;strokeColor=none;fillColor=none;align=left;verticalAlign=top;spacingLeft=4;spacingRight=4;overflow=hidden;rotatable=0;points=[[0,0.5],[1,0.5]];portConstraint=eastwest;whiteSpace=wrap;html=1;" parent="YVkegcNKEWYejIBUxYfp-16" vertex="1">
          <mxGeometry y="544" width="196" height="26" as="geometry" />
        </mxCell>
        <mxCell id="YVkegcNKEWYejIBUxYfp-33" value="+ isRequired(): bool" style="text;strokeColor=none;fillColor=none;align=left;verticalAlign=top;spacingLeft=4;spacingRight=4;overflow=hidden;rotatable=0;points=[[0,0.5],[1,0.5]];portConstraint=eastwest;whiteSpace=wrap;html=1;" parent="YVkegcNKEWYejIBUxYfp-16" vertex="1">
          <mxGeometry y="570" width="196" height="26" as="geometry" />
        </mxCell>
        <mxCell id="YVkegcNKEWYejIBUxYfp-32" value="+ getValue(): String" style="text;strokeColor=none;fillColor=none;align=left;verticalAlign=top;spacingLeft=4;spacingRight=4;overflow=hidden;rotatable=0;points=[[0,0.5],[1,0.5]];portConstraint=eastwest;whiteSpace=wrap;html=1;" parent="YVkegcNKEWYejIBUxYfp-16" vertex="1">
          <mxGeometry y="596" width="196" height="26" as="geometry" />
        </mxCell>
        <mxCell id="YVkegcNKEWYejIBUxYfp-31" value="+ getName(): String" style="text;strokeColor=none;fillColor=none;align=left;verticalAlign=top;spacingLeft=4;spacingRight=4;overflow=hidden;rotatable=0;points=[[0,0.5],[1,0.5]];portConstraint=eastwest;whiteSpace=wrap;html=1;" parent="YVkegcNKEWYejIBUxYfp-16" vertex="1">
          <mxGeometry y="622" width="196" height="26" as="geometry" />
        </mxCell>
        <mxCell id="YVkegcNKEWYejIBUxYfp-27" value="" style="endArrow=block;dashed=1;endFill=0;endSize=12;html=1;rounded=0;exitX=0;exitY=0.5;exitDx=0;exitDy=0;entryX=1;entryY=0.5;entryDx=0;entryDy=0;" parent="YVkegcNKEWYejIBUxYfp-38" source="YVkegcNKEWYejIBUxYfp-16" target="YVkegcNKEWYejIBUxYfp-11" edge="1">
          <mxGeometry width="160" relative="1" as="geometry">
            <mxPoint x="210" y="170" as="sourcePoint" />
            <mxPoint x="180" y="70" as="targetPoint" />
          </mxGeometry>
        </mxCell>
        <mxCell id="YVkegcNKEWYejIBUxYfp-44" value="Type" style="swimlane;whiteSpace=wrap;html=1;" parent="YVkegcNKEWYejIBUxYfp-38" vertex="1">
          <mxGeometry x="550" y="76" width="800" height="554" as="geometry">
            <mxRectangle x="550" y="76" width="70" height="30" as="alternateBounds" />
          </mxGeometry>
        </mxCell>
        <mxCell id="YVkegcNKEWYejIBUxYfp-79" value="tel" style="swimlane;fontStyle=1;align=center;verticalAlign=top;childLayout=stackLayout;horizontal=1;startSize=26;horizontalStack=0;resizeParent=1;resizeParentMax=0;resizeLast=0;collapsible=1;marginBottom=0;whiteSpace=wrap;html=1;" parent="YVkegcNKEWYejIBUxYfp-44" vertex="1">
          <mxGeometry x="400" y="184" width="160" height="52" as="geometry" />
        </mxCell>
        <mxCell id="YVkegcNKEWYejIBUxYfp-80" value="+ type : String = &quot;tel&quot;" style="text;strokeColor=none;fillColor=none;align=left;verticalAlign=top;spacingLeft=4;spacingRight=4;overflow=hidden;rotatable=0;points=[[0,0.5],[1,0.5]];portConstraint=eastwest;whiteSpace=wrap;html=1;" parent="YVkegcNKEWYejIBUxYfp-79" vertex="1">
          <mxGeometry y="26" width="160" height="26" as="geometry" />
        </mxCell>
        <mxCell id="YVkegcNKEWYejIBUxYfp-81" value="text" style="swimlane;fontStyle=1;align=center;verticalAlign=top;childLayout=stackLayout;horizontal=1;startSize=26;horizontalStack=0;resizeParent=1;resizeParentMax=0;resizeLast=0;collapsible=1;marginBottom=0;whiteSpace=wrap;html=1;" parent="YVkegcNKEWYejIBUxYfp-44" vertex="1">
          <mxGeometry x="400" y="256" width="160" height="52" as="geometry" />
        </mxCell>
        <mxCell id="YVkegcNKEWYejIBUxYfp-82" value="+ type : String = &quot;text&quot;" style="text;strokeColor=none;fillColor=none;align=left;verticalAlign=top;spacingLeft=4;spacingRight=4;overflow=hidden;rotatable=0;points=[[0,0.5],[1,0.5]];portConstraint=eastwest;whiteSpace=wrap;html=1;" parent="YVkegcNKEWYejIBUxYfp-81" vertex="1">
          <mxGeometry y="26" width="160" height="26" as="geometry" />
        </mxCell>
        <mxCell id="YVkegcNKEWYejIBUxYfp-83" value="time" style="swimlane;fontStyle=1;align=center;verticalAlign=top;childLayout=stackLayout;horizontal=1;startSize=26;horizontalStack=0;resizeParent=1;resizeParentMax=0;resizeLast=0;collapsible=1;marginBottom=0;whiteSpace=wrap;html=1;" parent="YVkegcNKEWYejIBUxYfp-44" vertex="1">
          <mxGeometry x="20" y="114" width="160" height="52" as="geometry" />
        </mxCell>
        <mxCell id="YVkegcNKEWYejIBUxYfp-84" value="+ type : String = &quot;time&quot;" style="text;strokeColor=none;fillColor=none;align=left;verticalAlign=top;spacingLeft=4;spacingRight=4;overflow=hidden;rotatable=0;points=[[0,0.5],[1,0.5]];portConstraint=eastwest;whiteSpace=wrap;html=1;" parent="YVkegcNKEWYejIBUxYfp-83" vertex="1">
          <mxGeometry y="26" width="160" height="26" as="geometry" />
        </mxCell>
        <mxCell id="YVkegcNKEWYejIBUxYfp-85" value="url" style="swimlane;fontStyle=1;align=center;verticalAlign=top;childLayout=stackLayout;horizontal=1;startSize=26;horizontalStack=0;resizeParent=1;resizeParentMax=0;resizeLast=0;collapsible=1;marginBottom=0;whiteSpace=wrap;html=1;" parent="YVkegcNKEWYejIBUxYfp-44" vertex="1">
          <mxGeometry x="400" y="331" width="160" height="52" as="geometry" />
        </mxCell>
        <mxCell id="YVkegcNKEWYejIBUxYfp-86" value="+ type : String = &quot;url&quot;" style="text;strokeColor=none;fillColor=none;align=left;verticalAlign=top;spacingLeft=4;spacingRight=4;overflow=hidden;rotatable=0;points=[[0,0.5],[1,0.5]];portConstraint=eastwest;whiteSpace=wrap;html=1;" parent="YVkegcNKEWYejIBUxYfp-85" vertex="1">
          <mxGeometry y="26" width="160" height="26" as="geometry" />
        </mxCell>
        <mxCell id="YVkegcNKEWYejIBUxYfp-40" value="button" style="swimlane;fontStyle=1;align=center;verticalAlign=top;childLayout=stackLayout;horizontal=1;startSize=26;horizontalStack=0;resizeParent=1;resizeParentMax=0;resizeLast=0;collapsible=1;marginBottom=0;whiteSpace=wrap;html=1;" parent="YVkegcNKEWYejIBUxYfp-44" vertex="1">
          <mxGeometry x="220" y="44" width="160" height="52" as="geometry" />
        </mxCell>
        <mxCell id="YVkegcNKEWYejIBUxYfp-41" value="+ type : String = &quot;button&quot;" style="text;strokeColor=none;fillColor=none;align=left;verticalAlign=top;spacingLeft=4;spacingRight=4;overflow=hidden;rotatable=0;points=[[0,0.5],[1,0.5]];portConstraint=eastwest;whiteSpace=wrap;html=1;" parent="YVkegcNKEWYejIBUxYfp-40" vertex="1">
          <mxGeometry y="26" width="160" height="26" as="geometry" />
        </mxCell>
        <mxCell id="YVkegcNKEWYejIBUxYfp-47" value="color" style="swimlane;fontStyle=1;align=center;verticalAlign=top;childLayout=stackLayout;horizontal=1;startSize=26;horizontalStack=0;resizeParent=1;resizeParentMax=0;resizeLast=0;collapsible=1;marginBottom=0;whiteSpace=wrap;html=1;" parent="YVkegcNKEWYejIBUxYfp-44" vertex="1">
          <mxGeometry x="400" y="44" width="160" height="52" as="geometry" />
        </mxCell>
        <mxCell id="YVkegcNKEWYejIBUxYfp-48" value="+ type : String = &quot;color&quot;" style="text;strokeColor=none;fillColor=none;align=left;verticalAlign=top;spacingLeft=4;spacingRight=4;overflow=hidden;rotatable=0;points=[[0,0.5],[1,0.5]];portConstraint=eastwest;whiteSpace=wrap;html=1;" parent="YVkegcNKEWYejIBUxYfp-47" vertex="1">
          <mxGeometry y="26" width="160" height="26" as="geometry" />
        </mxCell>
        <mxCell id="YVkegcNKEWYejIBUxYfp-49" value="date" style="swimlane;fontStyle=1;align=center;verticalAlign=top;childLayout=stackLayout;horizontal=1;startSize=26;horizontalStack=0;resizeParent=1;resizeParentMax=0;resizeLast=0;collapsible=1;marginBottom=0;whiteSpace=wrap;html=1;" parent="YVkegcNKEWYejIBUxYfp-44" vertex="1">
          <mxGeometry x="20" y="256" width="160" height="52" as="geometry" />
        </mxCell>
        <mxCell id="YVkegcNKEWYejIBUxYfp-50" value="+ type : String = &quot;date&quot;" style="text;strokeColor=none;fillColor=none;align=left;verticalAlign=top;spacingLeft=4;spacingRight=4;overflow=hidden;rotatable=0;points=[[0,0.5],[1,0.5]];portConstraint=eastwest;whiteSpace=wrap;html=1;" parent="YVkegcNKEWYejIBUxYfp-49" vertex="1">
          <mxGeometry y="26" width="160" height="26" as="geometry" />
        </mxCell>
        <mxCell id="YVkegcNKEWYejIBUxYfp-51" value="datetime" style="swimlane;fontStyle=1;align=center;verticalAlign=top;childLayout=stackLayout;horizontal=1;startSize=26;horizontalStack=0;resizeParent=1;resizeParentMax=0;resizeLast=0;collapsible=1;marginBottom=0;whiteSpace=wrap;html=1;" parent="YVkegcNKEWYejIBUxYfp-44" vertex="1">
          <mxGeometry x="20" y="184" width="160" height="52" as="geometry" />
        </mxCell>
        <mxCell id="YVkegcNKEWYejIBUxYfp-52" value="+ type : String = &quot;datetime&quot;" style="text;strokeColor=none;fillColor=none;align=left;verticalAlign=top;spacingLeft=4;spacingRight=4;overflow=hidden;rotatable=0;points=[[0,0.5],[1,0.5]];portConstraint=eastwest;whiteSpace=wrap;html=1;" parent="YVkegcNKEWYejIBUxYfp-51" vertex="1">
          <mxGeometry y="26" width="160" height="26" as="geometry" />
        </mxCell>
        <mxCell id="YVkegcNKEWYejIBUxYfp-53" value="email" style="swimlane;fontStyle=1;align=center;verticalAlign=top;childLayout=stackLayout;horizontal=1;startSize=26;horizontalStack=0;resizeParent=1;resizeParentMax=0;resizeLast=0;collapsible=1;marginBottom=0;whiteSpace=wrap;html=1;" parent="YVkegcNKEWYejIBUxYfp-44" vertex="1">
          <mxGeometry x="220" y="184" width="160" height="52" as="geometry" />
        </mxCell>
        <mxCell id="YVkegcNKEWYejIBUxYfp-54" value="+ type : String = &quot;email&quot;" style="text;strokeColor=none;fillColor=none;align=left;verticalAlign=top;spacingLeft=4;spacingRight=4;overflow=hidden;rotatable=0;points=[[0,0.5],[1,0.5]];portConstraint=eastwest;whiteSpace=wrap;html=1;" parent="YVkegcNKEWYejIBUxYfp-53" vertex="1">
          <mxGeometry y="26" width="160" height="26" as="geometry" />
        </mxCell>
        <mxCell id="YVkegcNKEWYejIBUxYfp-63" value="number" style="swimlane;fontStyle=1;align=center;verticalAlign=top;childLayout=stackLayout;horizontal=1;startSize=26;horizontalStack=0;resizeParent=1;resizeParentMax=0;resizeLast=0;collapsible=1;marginBottom=0;whiteSpace=wrap;html=1;" parent="YVkegcNKEWYejIBUxYfp-44" vertex="1">
          <mxGeometry x="220" y="114" width="160" height="52" as="geometry" />
        </mxCell>
        <mxCell id="YVkegcNKEWYejIBUxYfp-64" value="+ type : String = &quot;number&quot;" style="text;strokeColor=none;fillColor=none;align=left;verticalAlign=top;spacingLeft=4;spacingRight=4;overflow=hidden;rotatable=0;points=[[0,0.5],[1,0.5]];portConstraint=eastwest;whiteSpace=wrap;html=1;" parent="YVkegcNKEWYejIBUxYfp-63" vertex="1">
          <mxGeometry y="26" width="160" height="26" as="geometry" />
        </mxCell>
        <mxCell id="YVkegcNKEWYejIBUxYfp-61" value="month" style="swimlane;fontStyle=1;align=center;verticalAlign=top;childLayout=stackLayout;horizontal=1;startSize=26;horizontalStack=0;resizeParent=1;resizeParentMax=0;resizeLast=0;collapsible=1;marginBottom=0;whiteSpace=wrap;html=1;" parent="YVkegcNKEWYejIBUxYfp-44" vertex="1">
          <mxGeometry x="20" y="331" width="160" height="52" as="geometry" />
        </mxCell>
        <mxCell id="YVkegcNKEWYejIBUxYfp-62" value="+ type : String = &quot;month&quot;" style="text;strokeColor=none;fillColor=none;align=left;verticalAlign=top;spacingLeft=4;spacingRight=4;overflow=hidden;rotatable=0;points=[[0,0.5],[1,0.5]];portConstraint=eastwest;whiteSpace=wrap;html=1;" parent="YVkegcNKEWYejIBUxYfp-61" vertex="1">
          <mxGeometry y="26" width="160" height="26" as="geometry" />
        </mxCell>
        <mxCell id="YVkegcNKEWYejIBUxYfp-59" value="image" style="swimlane;fontStyle=1;align=center;verticalAlign=top;childLayout=stackLayout;horizontal=1;startSize=26;horizontalStack=0;resizeParent=1;resizeParentMax=0;resizeLast=0;collapsible=1;marginBottom=0;whiteSpace=wrap;html=1;" parent="YVkegcNKEWYejIBUxYfp-44" vertex="1">
          <mxGeometry x="220" y="331" width="160" height="52" as="geometry" />
        </mxCell>
        <mxCell id="YVkegcNKEWYejIBUxYfp-60" value="+ type : String = &quot;image&quot;" style="text;strokeColor=none;fillColor=none;align=left;verticalAlign=top;spacingLeft=4;spacingRight=4;overflow=hidden;rotatable=0;points=[[0,0.5],[1,0.5]];portConstraint=eastwest;whiteSpace=wrap;html=1;" parent="YVkegcNKEWYejIBUxYfp-59" vertex="1">
          <mxGeometry y="26" width="160" height="26" as="geometry" />
        </mxCell>
        <mxCell id="YVkegcNKEWYejIBUxYfp-55" value="file" style="swimlane;fontStyle=1;align=center;verticalAlign=top;childLayout=stackLayout;horizontal=1;startSize=26;horizontalStack=0;resizeParent=1;resizeParentMax=0;resizeLast=0;collapsible=1;marginBottom=0;whiteSpace=wrap;html=1;" parent="YVkegcNKEWYejIBUxYfp-44" vertex="1">
          <mxGeometry x="220" y="256" width="160" height="52" as="geometry" />
        </mxCell>
        <mxCell id="YVkegcNKEWYejIBUxYfp-56" value="+ type : String = &quot;file&quot;" style="text;strokeColor=none;fillColor=none;align=left;verticalAlign=top;spacingLeft=4;spacingRight=4;overflow=hidden;rotatable=0;points=[[0,0.5],[1,0.5]];portConstraint=eastwest;whiteSpace=wrap;html=1;" parent="YVkegcNKEWYejIBUxYfp-55" vertex="1">
          <mxGeometry y="26" width="160" height="26" as="geometry" />
        </mxCell>
        <mxCell id="YVkegcNKEWYejIBUxYfp-57" value="hidden" style="swimlane;fontStyle=1;align=center;verticalAlign=top;childLayout=stackLayout;horizontal=1;startSize=26;horizontalStack=0;resizeParent=1;resizeParentMax=0;resizeLast=0;collapsible=1;marginBottom=0;whiteSpace=wrap;html=1;" parent="YVkegcNKEWYejIBUxYfp-44" vertex="1">
          <mxGeometry x="590" y="114" width="160" height="52" as="geometry" />
        </mxCell>
        <mxCell id="YVkegcNKEWYejIBUxYfp-58" value="+ type : String = &quot;hidden&quot;" style="text;strokeColor=none;fillColor=none;align=left;verticalAlign=top;spacingLeft=4;spacingRight=4;overflow=hidden;rotatable=0;points=[[0,0.5],[1,0.5]];portConstraint=eastwest;whiteSpace=wrap;html=1;" parent="YVkegcNKEWYejIBUxYfp-57" vertex="1">
          <mxGeometry y="26" width="160" height="26" as="geometry" />
        </mxCell>
        <mxCell id="YVkegcNKEWYejIBUxYfp-87" value="week" style="swimlane;fontStyle=1;align=center;verticalAlign=top;childLayout=stackLayout;horizontal=1;startSize=26;horizontalStack=0;resizeParent=1;resizeParentMax=0;resizeLast=0;collapsible=1;marginBottom=0;whiteSpace=wrap;html=1;" parent="YVkegcNKEWYejIBUxYfp-44" vertex="1">
          <mxGeometry x="20" y="44" width="160" height="52" as="geometry" />
        </mxCell>
        <mxCell id="YVkegcNKEWYejIBUxYfp-88" value="+ type : String = &quot;week&quot;" style="text;strokeColor=none;fillColor=none;align=left;verticalAlign=top;spacingLeft=4;spacingRight=4;overflow=hidden;rotatable=0;points=[[0,0.5],[1,0.5]];portConstraint=eastwest;whiteSpace=wrap;html=1;" parent="YVkegcNKEWYejIBUxYfp-87" vertex="1">
          <mxGeometry y="26" width="160" height="26" as="geometry" />
        </mxCell>
        <mxCell id="YVkegcNKEWYejIBUxYfp-67" value="password" style="swimlane;fontStyle=1;align=center;verticalAlign=top;childLayout=stackLayout;horizontal=1;startSize=26;horizontalStack=0;resizeParent=1;resizeParentMax=0;resizeLast=0;collapsible=1;marginBottom=0;whiteSpace=wrap;html=1;" parent="YVkegcNKEWYejIBUxYfp-44" vertex="1">
          <mxGeometry x="590" y="44" width="160" height="52" as="geometry" />
        </mxCell>
        <mxCell id="YVkegcNKEWYejIBUxYfp-68" value="+ type : String = &quot;password&quot;" style="text;strokeColor=none;fillColor=none;align=left;verticalAlign=top;spacingLeft=4;spacingRight=4;overflow=hidden;rotatable=0;points=[[0,0.5],[1,0.5]];portConstraint=eastwest;whiteSpace=wrap;html=1;" parent="YVkegcNKEWYejIBUxYfp-67" vertex="1">
          <mxGeometry y="26" width="160" height="26" as="geometry" />
        </mxCell>
        <mxCell id="YVkegcNKEWYejIBUxYfp-71" value="reset" style="swimlane;fontStyle=1;align=center;verticalAlign=top;childLayout=stackLayout;horizontal=1;startSize=26;horizontalStack=0;resizeParent=1;resizeParentMax=0;resizeLast=0;collapsible=1;marginBottom=0;whiteSpace=wrap;html=1;" parent="YVkegcNKEWYejIBUxYfp-44" vertex="1">
          <mxGeometry x="590" y="261" width="160" height="52" as="geometry" />
        </mxCell>
        <mxCell id="YVkegcNKEWYejIBUxYfp-72" value="+ type : String = &quot;reset&quot;" style="text;strokeColor=none;fillColor=none;align=left;verticalAlign=top;spacingLeft=4;spacingRight=4;overflow=hidden;rotatable=0;points=[[0,0.5],[1,0.5]];portConstraint=eastwest;whiteSpace=wrap;html=1;" parent="YVkegcNKEWYejIBUxYfp-71" vertex="1">
          <mxGeometry y="26" width="160" height="26" as="geometry" />
        </mxCell>
        <mxCell id="YVkegcNKEWYejIBUxYfp-75" value="search" style="swimlane;fontStyle=1;align=center;verticalAlign=top;childLayout=stackLayout;horizontal=1;startSize=26;horizontalStack=0;resizeParent=1;resizeParentMax=0;resizeLast=0;collapsible=1;marginBottom=0;whiteSpace=wrap;html=1;" parent="YVkegcNKEWYejIBUxYfp-44" vertex="1">
          <mxGeometry x="400" y="114" width="160" height="52" as="geometry" />
        </mxCell>
        <mxCell id="YVkegcNKEWYejIBUxYfp-76" value="+ type : String = &quot;search&quot;" style="text;strokeColor=none;fillColor=none;align=left;verticalAlign=top;spacingLeft=4;spacingRight=4;overflow=hidden;rotatable=0;points=[[0,0.5],[1,0.5]];portConstraint=eastwest;whiteSpace=wrap;html=1;" parent="YVkegcNKEWYejIBUxYfp-75" vertex="1">
          <mxGeometry y="26" width="160" height="26" as="geometry" />
        </mxCell>
        <mxCell id="YVkegcNKEWYejIBUxYfp-77" value="submit" style="swimlane;fontStyle=1;align=center;verticalAlign=top;childLayout=stackLayout;horizontal=1;startSize=26;horizontalStack=0;resizeParent=1;resizeParentMax=0;resizeLast=0;collapsible=1;marginBottom=0;whiteSpace=wrap;html=1;" parent="YVkegcNKEWYejIBUxYfp-44" vertex="1">
          <mxGeometry x="590" y="191" width="160" height="52" as="geometry" />
        </mxCell>
        <mxCell id="YVkegcNKEWYejIBUxYfp-78" value="+ type : String = &quot;submit&quot;" style="text;strokeColor=none;fillColor=none;align=left;verticalAlign=top;spacingLeft=4;spacingRight=4;overflow=hidden;rotatable=0;points=[[0,0.5],[1,0.5]];portConstraint=eastwest;whiteSpace=wrap;html=1;" parent="YVkegcNKEWYejIBUxYfp-77" vertex="1">
          <mxGeometry y="26" width="160" height="26" as="geometry" />
        </mxCell>
        <mxCell id="YVkegcNKEWYejIBUxYfp-90" value="checkbox" style="swimlane;fontStyle=1;align=center;verticalAlign=top;childLayout=stackLayout;horizontal=1;startSize=26;horizontalStack=0;resizeParent=1;resizeParentMax=0;resizeLast=0;collapsible=1;marginBottom=0;whiteSpace=wrap;html=1;" parent="YVkegcNKEWYejIBUxYfp-44" vertex="1">
          <mxGeometry x="20" y="414" width="160" height="112" as="geometry" />
        </mxCell>
        <mxCell id="YVkegcNKEWYejIBUxYfp-46" value="+ type : String = &quot;checkbox&quot;" style="text;strokeColor=none;fillColor=none;align=left;verticalAlign=top;spacingLeft=4;spacingRight=4;overflow=hidden;rotatable=0;points=[[0,0.5],[1,0.5]];portConstraint=eastwest;whiteSpace=wrap;html=1;" parent="YVkegcNKEWYejIBUxYfp-90" vertex="1">
          <mxGeometry y="26" width="160" height="26" as="geometry" />
        </mxCell>
        <mxCell id="YVkegcNKEWYejIBUxYfp-89" value="+ checked : bool = false" style="text;strokeColor=none;fillColor=none;align=left;verticalAlign=top;spacingLeft=4;spacingRight=4;overflow=hidden;rotatable=0;points=[[0,0.5],[1,0.5]];portConstraint=eastwest;whiteSpace=wrap;html=1;" parent="YVkegcNKEWYejIBUxYfp-90" vertex="1">
          <mxGeometry y="52" width="160" height="26" as="geometry" />
        </mxCell>
        <mxCell id="YVkegcNKEWYejIBUxYfp-92" value="" style="line;strokeWidth=1;fillColor=none;align=left;verticalAlign=middle;spacingTop=-1;spacingLeft=3;spacingRight=3;rotatable=0;labelPosition=right;points=[];portConstraint=eastwest;strokeColor=inherit;" parent="YVkegcNKEWYejIBUxYfp-90" vertex="1">
          <mxGeometry y="78" width="160" height="8" as="geometry" />
        </mxCell>
        <mxCell id="YVkegcNKEWYejIBUxYfp-93" value="+ render():&amp;nbsp; String" style="text;strokeColor=none;fillColor=none;align=left;verticalAlign=top;spacingLeft=4;spacingRight=4;overflow=hidden;rotatable=0;points=[[0,0.5],[1,0.5]];portConstraint=eastwest;whiteSpace=wrap;html=1;" parent="YVkegcNKEWYejIBUxYfp-90" vertex="1">
          <mxGeometry y="86" width="160" height="26" as="geometry" />
        </mxCell>
        <mxCell id="YVkegcNKEWYejIBUxYfp-96" value="textarea" style="swimlane;fontStyle=1;align=center;verticalAlign=top;childLayout=stackLayout;horizontal=1;startSize=26;horizontalStack=0;resizeParent=1;resizeParentMax=0;resizeLast=0;collapsible=1;marginBottom=0;whiteSpace=wrap;html=1;" parent="YVkegcNKEWYejIBUxYfp-44" vertex="1">
          <mxGeometry x="220" y="414" width="160" height="86" as="geometry" />
        </mxCell>
        <mxCell id="YVkegcNKEWYejIBUxYfp-97" value="+ type : String = &quot;textarea&quot;" style="text;strokeColor=none;fillColor=none;align=left;verticalAlign=top;spacingLeft=4;spacingRight=4;overflow=hidden;rotatable=0;points=[[0,0.5],[1,0.5]];portConstraint=eastwest;whiteSpace=wrap;html=1;" parent="YVkegcNKEWYejIBUxYfp-96" vertex="1">
          <mxGeometry y="26" width="160" height="26" as="geometry" />
        </mxCell>
        <mxCell id="YVkegcNKEWYejIBUxYfp-99" value="" style="line;strokeWidth=1;fillColor=none;align=left;verticalAlign=middle;spacingTop=-1;spacingLeft=3;spacingRight=3;rotatable=0;labelPosition=right;points=[];portConstraint=eastwest;strokeColor=inherit;" parent="YVkegcNKEWYejIBUxYfp-96" vertex="1">
          <mxGeometry y="52" width="160" height="8" as="geometry" />
        </mxCell>
        <mxCell id="YVkegcNKEWYejIBUxYfp-100" value="+ render():&amp;nbsp; String" style="text;strokeColor=none;fillColor=none;align=left;verticalAlign=top;spacingLeft=4;spacingRight=4;overflow=hidden;rotatable=0;points=[[0,0.5],[1,0.5]];portConstraint=eastwest;whiteSpace=wrap;html=1;" parent="YVkegcNKEWYejIBUxYfp-96" vertex="1">
          <mxGeometry y="60" width="160" height="26" as="geometry" />
        </mxCell>
        <mxCell id="YVkegcNKEWYejIBUxYfp-73" value="range" style="swimlane;fontStyle=1;align=center;verticalAlign=top;childLayout=stackLayout;horizontal=1;startSize=26;horizontalStack=0;resizeParent=1;resizeParentMax=0;resizeLast=0;collapsible=1;marginBottom=0;whiteSpace=wrap;html=1;" parent="YVkegcNKEWYejIBUxYfp-44" vertex="1">
          <mxGeometry x="590" y="414" width="160" height="52" as="geometry" />
        </mxCell>
        <mxCell id="YVkegcNKEWYejIBUxYfp-74" value="+ type : String = &quot;range&quot;" style="text;strokeColor=none;fillColor=none;align=left;verticalAlign=top;spacingLeft=4;spacingRight=4;overflow=hidden;rotatable=0;points=[[0,0.5],[1,0.5]];portConstraint=eastwest;whiteSpace=wrap;html=1;" parent="YVkegcNKEWYejIBUxYfp-73" vertex="1">
          <mxGeometry y="26" width="160" height="26" as="geometry" />
        </mxCell>
        <mxCell id="YVkegcNKEWYejIBUxYfp-94" value="" style="endArrow=block;dashed=1;endFill=0;endSize=12;html=1;rounded=0;entryX=1;entryY=0.5;entryDx=0;entryDy=0;exitX=0;exitY=0.5;exitDx=0;exitDy=0;" parent="YVkegcNKEWYejIBUxYfp-38" source="YVkegcNKEWYejIBUxYfp-44" target="YVkegcNKEWYejIBUxYfp-16" edge="1">
          <mxGeometry width="160" relative="1" as="geometry">
            <mxPoint x="620" y="700" as="sourcePoint" />
            <mxPoint x="460" y="310" as="targetPoint" />
          </mxGeometry>
        </mxCell>
        <mxCell id="YVkegcNKEWYejIBUxYfp-101" value="radio" style="swimlane;fontStyle=1;align=center;verticalAlign=top;childLayout=stackLayout;horizontal=1;startSize=26;horizontalStack=0;resizeParent=1;resizeParentMax=0;resizeLast=0;collapsible=1;marginBottom=0;whiteSpace=wrap;html=1;" parent="1" vertex="1">
          <mxGeometry x="990" y="650" width="160" height="86" as="geometry" />
        </mxCell>
        <mxCell id="YVkegcNKEWYejIBUxYfp-102" value="+ type : String = &quot;radio&quot;" style="text;strokeColor=none;fillColor=none;align=left;verticalAlign=top;spacingLeft=4;spacingRight=4;overflow=hidden;rotatable=0;points=[[0,0.5],[1,0.5]];portConstraint=eastwest;whiteSpace=wrap;html=1;" parent="YVkegcNKEWYejIBUxYfp-101" vertex="1">
          <mxGeometry y="26" width="160" height="26" as="geometry" />
        </mxCell>
        <mxCell id="YVkegcNKEWYejIBUxYfp-103" value="" style="line;strokeWidth=1;fillColor=none;align=left;verticalAlign=middle;spacingTop=-1;spacingLeft=3;spacingRight=3;rotatable=0;labelPosition=right;points=[];portConstraint=eastwest;strokeColor=inherit;" parent="YVkegcNKEWYejIBUxYfp-101" vertex="1">
          <mxGeometry y="52" width="160" height="8" as="geometry" />
        </mxCell>
        <mxCell id="YVkegcNKEWYejIBUxYfp-104" value="+ render():&amp;nbsp; String" style="text;strokeColor=none;fillColor=none;align=left;verticalAlign=top;spacingLeft=4;spacingRight=4;overflow=hidden;rotatable=0;points=[[0,0.5],[1,0.5]];portConstraint=eastwest;whiteSpace=wrap;html=1;" parent="YVkegcNKEWYejIBUxYfp-101" vertex="1">
          <mxGeometry y="60" width="160" height="26" as="geometry" />
        </mxCell>
      </root>
    </mxGraphModel>
  </diagram>
</mxfile>
